<mxfile host="Electron" agent="Mozilla/5.0 (Windows NT 10.0; Win64; x64) AppleWebKit/537.36 (KHTML, like Gecko) draw.io/25.0.2 Chrome/128.0.6613.186 Electron/32.2.5 Safari/537.36" version="25.0.2">
  <diagram name="Stránka-1" id="ixW-vBEtSKfVC0j4W-M-">
    <mxGraphModel dx="2654" dy="844" grid="1" gridSize="10" guides="1" tooltips="1" connect="1" arrows="1" fold="1" page="1" pageScale="1" pageWidth="980" pageHeight="1390" math="0" shadow="0">
      <root>
        <mxCell id="0" />
        <mxCell id="1" parent="0" />
        <mxCell id="y_km2YXjke7CNAbJ_RV4-1" value="Start" style="ellipse;whiteSpace=wrap;html=1;" vertex="1" parent="1">
          <mxGeometry x="300" y="150" width="80" height="40" as="geometry" />
        </mxCell>
        <mxCell id="y_km2YXjke7CNAbJ_RV4-2" value="" style="endArrow=classic;html=1;rounded=0;exitX=0.5;exitY=1;exitDx=0;exitDy=0;" edge="1" parent="1" source="y_km2YXjke7CNAbJ_RV4-1" target="y_km2YXjke7CNAbJ_RV4-3">
          <mxGeometry width="50" height="50" relative="1" as="geometry">
            <mxPoint x="430" y="350" as="sourcePoint" />
            <mxPoint x="340" y="270" as="targetPoint" />
          </mxGeometry>
        </mxCell>
        <mxCell id="y_km2YXjke7CNAbJ_RV4-3" value="Získání dat z formuláře" style="rounded=0;whiteSpace=wrap;html=1;" vertex="1" parent="1">
          <mxGeometry x="265" y="230" width="150" height="30" as="geometry" />
        </mxCell>
        <mxCell id="y_km2YXjke7CNAbJ_RV4-4" value="" style="endArrow=classic;html=1;rounded=0;exitX=0.5;exitY=1;exitDx=0;exitDy=0;" edge="1" parent="1">
          <mxGeometry width="50" height="50" relative="1" as="geometry">
            <mxPoint x="339.76" y="260" as="sourcePoint" />
            <mxPoint x="339.76" y="300" as="targetPoint" />
          </mxGeometry>
        </mxCell>
        <mxCell id="y_km2YXjke7CNAbJ_RV4-5" value="Rozdělení podle středníků" style="rounded=0;whiteSpace=wrap;html=1;" vertex="1" parent="1">
          <mxGeometry x="265" y="300" width="150" height="30" as="geometry" />
        </mxCell>
        <mxCell id="y_km2YXjke7CNAbJ_RV4-6" value="" style="endArrow=classic;html=1;rounded=0;exitX=0.5;exitY=1;exitDx=0;exitDy=0;" edge="1" parent="1" source="y_km2YXjke7CNAbJ_RV4-5">
          <mxGeometry width="50" height="50" relative="1" as="geometry">
            <mxPoint x="430" y="350" as="sourcePoint" />
            <mxPoint x="340" y="370" as="targetPoint" />
          </mxGeometry>
        </mxCell>
        <mxCell id="y_km2YXjke7CNAbJ_RV4-11" value="" style="edgeStyle=orthogonalEdgeStyle;rounded=0;orthogonalLoop=1;jettySize=auto;html=1;" edge="1" parent="1" source="y_km2YXjke7CNAbJ_RV4-7" target="y_km2YXjke7CNAbJ_RV4-10">
          <mxGeometry relative="1" as="geometry" />
        </mxCell>
        <mxCell id="y_km2YXjke7CNAbJ_RV4-7" value="Vytvoření dvojdimenzionálního list_of_inputs" style="rounded=0;whiteSpace=wrap;html=1;" vertex="1" parent="1">
          <mxGeometry x="232.5" y="370" width="215" height="30" as="geometry" />
        </mxCell>
        <mxCell id="y_km2YXjke7CNAbJ_RV4-9" value="" style="endArrow=classic;html=1;rounded=0;exitX=0.5;exitY=1;exitDx=0;exitDy=0;" edge="1" parent="1">
          <mxGeometry width="50" height="50" relative="1" as="geometry">
            <mxPoint x="339.76" y="400" as="sourcePoint" />
            <mxPoint x="339.76" y="440" as="targetPoint" />
          </mxGeometry>
        </mxCell>
        <mxCell id="y_km2YXjke7CNAbJ_RV4-10" value="Doplnění prázdných hodnot pro dosažení 4 odpovědí" style="rounded=0;whiteSpace=wrap;html=1;" vertex="1" parent="1">
          <mxGeometry x="232.5" y="440" width="215" height="30" as="geometry" />
        </mxCell>
        <mxCell id="y_km2YXjke7CNAbJ_RV4-12" value="" style="endArrow=classic;html=1;rounded=0;exitX=0.5;exitY=1;exitDx=0;exitDy=0;" edge="1" parent="1">
          <mxGeometry width="50" height="50" relative="1" as="geometry">
            <mxPoint x="339.76" y="470" as="sourcePoint" />
            <mxPoint x="339.76" y="510" as="targetPoint" />
          </mxGeometry>
        </mxCell>
        <mxCell id="y_km2YXjke7CNAbJ_RV4-13" value="Získání category_id z DB" style="rounded=0;whiteSpace=wrap;html=1;" vertex="1" parent="1">
          <mxGeometry x="232.5" y="510" width="215" height="30" as="geometry" />
        </mxCell>
        <mxCell id="y_km2YXjke7CNAbJ_RV4-14" value="" style="endArrow=classic;html=1;rounded=0;exitX=0.5;exitY=1;exitDx=0;exitDy=0;" edge="1" parent="1">
          <mxGeometry width="50" height="50" relative="1" as="geometry">
            <mxPoint x="339.76" y="540" as="sourcePoint" />
            <mxPoint x="339.76" y="580" as="targetPoint" />
          </mxGeometry>
        </mxCell>
        <mxCell id="y_km2YXjke7CNAbJ_RV4-15" value="Získání maximálního ID kvízu (ID vloženého kvízu je o 1 vyšší)" style="rounded=0;whiteSpace=wrap;html=1;" vertex="1" parent="1">
          <mxGeometry x="232.5" y="580" width="215" height="30" as="geometry" />
        </mxCell>
        <mxCell id="y_km2YXjke7CNAbJ_RV4-17" value="" style="endArrow=classic;html=1;rounded=0;exitX=0.5;exitY=1;exitDx=0;exitDy=0;" edge="1" parent="1">
          <mxGeometry width="50" height="50" relative="1" as="geometry">
            <mxPoint x="339.76" y="610" as="sourcePoint" />
            <mxPoint x="339.76" y="650" as="targetPoint" />
          </mxGeometry>
        </mxCell>
        <mxCell id="y_km2YXjke7CNAbJ_RV4-18" value="for i in range (0, počet otázek)" style="shape=hexagon;perimeter=hexagonPerimeter2;whiteSpace=wrap;html=1;fixedSize=1;" vertex="1" parent="1">
          <mxGeometry x="240" y="650" width="200" height="30" as="geometry" />
        </mxCell>
        <mxCell id="y_km2YXjke7CNAbJ_RV4-19" value="" style="endArrow=classic;html=1;rounded=0;exitX=0.5;exitY=1;exitDx=0;exitDy=0;" edge="1" parent="1">
          <mxGeometry width="50" height="50" relative="1" as="geometry">
            <mxPoint x="339.76" y="680" as="sourcePoint" />
            <mxPoint x="339.76" y="720" as="targetPoint" />
          </mxGeometry>
        </mxCell>
        <mxCell id="y_km2YXjke7CNAbJ_RV4-20" value="Vložení otázky do DB" style="rounded=0;whiteSpace=wrap;html=1;" vertex="1" parent="1">
          <mxGeometry x="255" y="720" width="170" height="30" as="geometry" />
        </mxCell>
        <mxCell id="y_km2YXjke7CNAbJ_RV4-21" value="" style="endArrow=classic;html=1;rounded=0;exitX=0.5;exitY=1;exitDx=0;exitDy=0;" edge="1" parent="1">
          <mxGeometry width="50" height="50" relative="1" as="geometry">
            <mxPoint x="339.76" y="750" as="sourcePoint" />
            <mxPoint x="339.76" y="790" as="targetPoint" />
          </mxGeometry>
        </mxCell>
        <mxCell id="y_km2YXjke7CNAbJ_RV4-22" value="Vložení správné odpovědi s is_correct=1" style="rounded=0;whiteSpace=wrap;html=1;" vertex="1" parent="1">
          <mxGeometry x="255" y="790" width="170" height="30" as="geometry" />
        </mxCell>
        <mxCell id="y_km2YXjke7CNAbJ_RV4-23" value="" style="endArrow=classic;html=1;rounded=0;exitX=0.5;exitY=1;exitDx=0;exitDy=0;" edge="1" parent="1">
          <mxGeometry width="50" height="50" relative="1" as="geometry">
            <mxPoint x="339.76" y="820" as="sourcePoint" />
            <mxPoint x="339.76" y="860" as="targetPoint" />
          </mxGeometry>
        </mxCell>
        <mxCell id="y_km2YXjke7CNAbJ_RV4-24" value="is_correct=0" style="rounded=0;whiteSpace=wrap;html=1;" vertex="1" parent="1">
          <mxGeometry x="255" y="860" width="170" height="30" as="geometry" />
        </mxCell>
        <mxCell id="y_km2YXjke7CNAbJ_RV4-25" value="" style="endArrow=classic;html=1;rounded=0;exitX=0;exitY=0.5;exitDx=0;exitDy=0;" edge="1" parent="1" source="y_km2YXjke7CNAbJ_RV4-24">
          <mxGeometry width="50" height="50" relative="1" as="geometry">
            <mxPoint x="430" y="830" as="sourcePoint" />
            <mxPoint x="220" y="875" as="targetPoint" />
          </mxGeometry>
        </mxCell>
        <mxCell id="y_km2YXjke7CNAbJ_RV4-26" value="for i in range (2, 5&lt;span style=&quot;background-color: initial;&quot;&gt;)&lt;/span&gt;" style="shape=hexagon;perimeter=hexagonPerimeter2;whiteSpace=wrap;html=1;fixedSize=1;" vertex="1" parent="1">
          <mxGeometry x="20" y="860" width="200" height="30" as="geometry" />
        </mxCell>
        <mxCell id="y_km2YXjke7CNAbJ_RV4-27" value="" style="endArrow=classic;html=1;rounded=0;exitX=0.5;exitY=0;exitDx=0;exitDy=0;" edge="1" parent="1" source="y_km2YXjke7CNAbJ_RV4-26">
          <mxGeometry width="50" height="50" relative="1" as="geometry">
            <mxPoint x="330" y="830" as="sourcePoint" />
            <mxPoint x="120" y="810" as="targetPoint" />
          </mxGeometry>
        </mxCell>
        <mxCell id="y_km2YXjke7CNAbJ_RV4-28" value="Vložení špatné odpovědi do DB" style="rounded=0;whiteSpace=wrap;html=1;" vertex="1" parent="1">
          <mxGeometry x="35" y="780" width="170" height="30" as="geometry" />
        </mxCell>
        <mxCell id="y_km2YXjke7CNAbJ_RV4-29" value="" style="endArrow=classic;html=1;rounded=0;exitX=-0.001;exitY=0.394;exitDx=0;exitDy=0;entryX=0.375;entryY=0;entryDx=0;entryDy=0;exitPerimeter=0;" edge="1" parent="1" source="y_km2YXjke7CNAbJ_RV4-28" target="y_km2YXjke7CNAbJ_RV4-26">
          <mxGeometry width="50" height="50" relative="1" as="geometry">
            <mxPoint x="290" y="830" as="sourcePoint" />
            <mxPoint x="340" y="780" as="targetPoint" />
            <Array as="points">
              <mxPoint y="792" />
              <mxPoint y="840" />
              <mxPoint x="95" y="840" />
            </Array>
          </mxGeometry>
        </mxCell>
        <mxCell id="y_km2YXjke7CNAbJ_RV4-30" value="" style="endArrow=classic;html=1;rounded=0;entryX=0;entryY=0.5;entryDx=0;entryDy=0;exitX=0.5;exitY=0;exitDx=0;exitDy=0;" edge="1" parent="1" source="y_km2YXjke7CNAbJ_RV4-31" target="y_km2YXjke7CNAbJ_RV4-18">
          <mxGeometry width="50" height="50" relative="1" as="geometry">
            <mxPoint x="-40" y="810" as="sourcePoint" />
            <mxPoint x="230" y="730" as="targetPoint" />
            <Array as="points">
              <mxPoint x="-85" y="665" />
              <mxPoint x="200" y="665" />
            </Array>
          </mxGeometry>
        </mxCell>
        <mxCell id="y_km2YXjke7CNAbJ_RV4-31" value="inkrementace quiz_id při vkládání více otázek" style="rounded=0;whiteSpace=wrap;html=1;" vertex="1" parent="1">
          <mxGeometry x="-170" y="860" width="170" height="30" as="geometry" />
        </mxCell>
        <mxCell id="y_km2YXjke7CNAbJ_RV4-32" value="" style="endArrow=classic;html=1;rounded=0;exitX=0;exitY=0.5;exitDx=0;exitDy=0;entryX=1;entryY=0.5;entryDx=0;entryDy=0;" edge="1" parent="1" source="y_km2YXjke7CNAbJ_RV4-26" target="y_km2YXjke7CNAbJ_RV4-31">
          <mxGeometry width="50" height="50" relative="1" as="geometry">
            <mxPoint x="40" y="810" as="sourcePoint" />
            <mxPoint x="90" y="760" as="targetPoint" />
          </mxGeometry>
        </mxCell>
        <mxCell id="y_km2YXjke7CNAbJ_RV4-33" value="" style="endArrow=classic;html=1;rounded=0;exitX=1;exitY=0.5;exitDx=0;exitDy=0;" edge="1" parent="1" source="y_km2YXjke7CNAbJ_RV4-18">
          <mxGeometry width="50" height="50" relative="1" as="geometry">
            <mxPoint x="440" y="720" as="sourcePoint" />
            <mxPoint x="530" y="665" as="targetPoint" />
          </mxGeometry>
        </mxCell>
        <mxCell id="y_km2YXjke7CNAbJ_RV4-34" value="End" style="ellipse;whiteSpace=wrap;html=1;" vertex="1" parent="1">
          <mxGeometry x="530" y="645" width="80" height="40" as="geometry" />
        </mxCell>
      </root>
    </mxGraphModel>
  </diagram>
</mxfile>
